<svg width="40" height="40" viewBox="0 0 40 40" fill="none" xmlns="http://www.w3.org/2000/svg">
<g clip-path="url(#clip0_327_2119)">
<rect width="40" height="40" rx="20" fill="#2F2F36"/>
<path d="M20.0704 7.31851C20.0278 7.40375 19.968 7.79582 19.9509 8.17937C19.9253 8.59702 19.8656 8.92091 19.8058 8.955C19.7546 8.98909 19.362 9.01466 18.9352 9.00614L18.1671 8.98909L18.022 8.6993C17.8513 8.36689 17.7318 8.31575 17.544 8.49474C17.4416 8.59702 17.433 8.67373 17.4928 8.79306C17.5525 8.90386 17.544 8.955 17.4416 8.99762C17.3648 9.02319 17.2794 9.03171 17.2453 9.01466C17.0916 8.92091 14.8383 9.33003 14.292 9.55164C13.6348 9.82439 13.7287 9.84996 13.0203 9.2107C12.6618 8.88681 12.3375 8.62259 12.3033 8.62259C12.1924 8.62259 12.0302 8.81863 12.0302 8.955C12.0302 9.03171 12.2863 9.32151 12.6021 9.6113L13.1739 10.1312L12.952 10.3955C12.8154 10.5574 12.696 10.8301 12.6618 11.0603C12.6106 11.4097 12.6277 11.4694 12.8496 11.6995C13.2166 12.0831 13.4897 12.1768 14.3774 12.245C15.1456 12.3047 15.1883 12.3217 15.1883 12.5007C15.1883 12.603 15.137 12.7394 15.0688 12.7905C14.8724 12.9525 14.8298 13.2934 14.9749 13.5662C15.0858 13.7878 15.137 13.8133 15.2736 13.7366C15.3675 13.6855 15.4443 13.5747 15.4443 13.4894C15.4443 13.4127 15.5638 13.1229 15.7089 12.8587L15.9735 12.3729H16.4259C16.6734 12.3729 17.2879 12.4666 17.783 12.586C18.278 12.7053 18.9096 12.799 19.1742 12.799C19.8058 12.799 21.1373 13.0121 21.291 13.14C21.3593 13.1911 21.419 13.319 21.4361 13.4213C21.4702 13.6514 21.8799 13.8219 22.0336 13.6684C22.1189 13.5832 22.1189 13.5235 22.0336 13.3957C21.9311 13.2337 21.9567 13.2252 22.6822 13.2252C23.3992 13.2252 23.4419 13.2337 23.5528 13.4298C23.7491 13.8048 24.1247 13.8133 24.0308 13.4383C23.9881 13.2678 24.0137 13.2423 24.2954 13.2082C24.4661 13.1911 25.0892 13.2082 25.6781 13.2508C26.4378 13.3019 26.7962 13.2934 26.9072 13.2252C27.0182 13.157 27.1462 13.1656 27.4022 13.2337C27.6924 13.3275 27.7607 13.319 27.8802 13.1996C28.0253 13.0633 27.9826 12.8161 27.8034 12.765C27.7437 12.7394 27.59 12.7053 27.462 12.6797C27.2998 12.6456 27.223 12.5689 27.223 12.4496C27.223 11.9211 26.7877 11.3671 25.7976 10.6085C25.4562 10.3528 25.1575 10.1057 25.1319 10.063C25.0977 10.0204 25.3538 9.81586 25.6781 9.60278C26.1561 9.29594 26.2841 9.16809 26.2841 9.00614C26.2841 8.6993 25.9683 8.72487 25.5074 9.06581C25.3026 9.21923 25.0721 9.38117 24.9953 9.43231C24.9185 9.47493 24.7563 9.58573 24.6283 9.67949C24.4149 9.83291 24.3808 9.83291 23.8686 9.69654C22.4176 9.31298 21.3337 9.05728 20.9666 9.00614L20.5569 8.955L20.5655 8.21347C20.5826 7.37818 20.5313 7.17361 20.3009 7.17361C20.2155 7.17361 20.1131 7.2418 20.0704 7.31851ZM17.7488 9.55164C17.7488 9.59425 17.7659 9.68801 17.7915 9.7562C17.8427 9.87553 17.4501 9.95224 15.7004 10.1568C15.2992 10.1994 14.8639 10.2761 14.7188 10.3102C14.4457 10.3955 14.2494 10.3614 14.2494 10.2335C14.2494 10.0545 15.0175 9.80734 16.3405 9.56016C16.8441 9.4664 17.7488 9.4664 17.7488 9.55164ZM19.7802 9.66244C19.7546 9.84143 19.7034 9.85848 19.1316 9.85848C18.6194 9.867 18.4914 9.84143 18.4231 9.72211C18.3804 9.63687 18.3463 9.55164 18.3463 9.52607C18.3463 9.5005 18.6792 9.47493 19.0803 9.47493C19.7888 9.47493 19.8058 9.48345 19.7802 9.66244ZM21.0776 9.56016C21.3849 9.6113 21.8458 9.70506 22.1018 9.78177C23.3565 10.1483 23.4931 10.2591 22.4006 10.0289C22.0677 9.96076 21.4873 9.9011 21.1032 9.9011C20.4033 9.9011 20.3948 9.9011 20.3948 9.68801C20.3948 9.44083 20.3521 9.44936 21.0776 9.56016ZM19.8485 10.4636C20.0107 10.5744 20.0875 10.583 20.1643 10.5063C20.3777 10.2932 22.8615 10.4636 23.2626 10.7279C23.3821 10.8046 23.5358 10.8301 23.6467 10.7961C23.954 10.6938 24.6283 10.9324 25.4733 11.4268C25.9427 11.6995 25.9598 11.7336 25.772 11.7762C25.6184 11.8103 25.5501 11.8956 25.533 12.0575C25.5074 12.2706 25.4733 12.2876 25.1063 12.2791C24.7392 12.2791 24.1674 12.1939 23.6382 12.0575C23.5187 12.0319 23.2114 11.9978 22.9554 11.9808C22.3323 11.9467 21.7092 11.7933 21.5812 11.6399C21.4617 11.4864 21.2568 11.4864 21.0861 11.6313C20.9752 11.7251 20.7789 11.7336 20.1387 11.6825C19.6949 11.6399 18.645 11.5972 17.8171 11.5887L16.3064 11.5632L16.4259 11.3756C16.5966 11.1199 16.588 10.9495 16.4003 10.8472C16.1783 10.7279 15.9223 10.9239 15.7516 11.3501L15.615 11.691H14.9834C14.1811 11.691 13.8824 11.5887 13.925 11.3245C13.9592 11.0858 14.2494 11.0347 14.531 11.2222C14.7103 11.3415 14.753 11.3415 14.8383 11.2307C14.8981 11.1626 14.9237 11.0262 14.8895 10.9239C14.8554 10.8131 14.8724 10.7534 14.9493 10.7534C15.009 10.7534 15.5638 10.6767 16.1698 10.583C17.5184 10.3784 17.9451 10.3699 18.0902 10.5404C18.2268 10.7023 18.4317 10.7023 18.4317 10.5489C18.4317 10.3784 18.5682 10.3443 19.1401 10.3358C19.4644 10.3273 19.7034 10.3784 19.8485 10.4636ZM26.2841 11.9041C26.3439 11.9808 26.3695 12.0575 26.3439 12.0916C26.2756 12.1513 26.0281 11.9638 26.0281 11.853C26.0281 11.7336 26.1646 11.7592 26.2841 11.9041ZM20.7191 12.2536C21.0264 12.2962 21.163 12.3473 21.163 12.4325C21.163 12.5093 21.1117 12.5433 21.0349 12.5093C20.924 12.4666 19.9424 12.3303 19.1998 12.2621C19.0377 12.245 19.2084 12.228 19.5839 12.2195C19.9595 12.2109 20.4716 12.228 20.7191 12.2536ZM22.6566 12.5689L23.1687 12.6712L22.6908 12.6968C22.4347 12.7138 22.1189 12.6797 21.9909 12.6371C21.7092 12.5263 21.6751 12.3303 21.9567 12.407C22.0592 12.4411 22.375 12.5093 22.6566 12.5689Z" fill="white"/>
<path fill-rule="evenodd" clip-rule="evenodd" d="M18.4743 15.0151C17.4501 15.1089 15.6662 15.7226 14.5054 16.3874C14.3091 16.4982 13.5324 17.1289 13.0886 17.5295C12.9861 17.6233 12.6447 17.8875 12.3289 18.1262C11.7315 18.5694 10.4938 19.882 10.4938 20.0695C10.4938 20.1292 10.417 20.3252 10.3231 20.5127C10.178 20.794 10.1524 21.0156 10.1524 21.902C10.1524 22.4901 10.1866 23.1038 10.2293 23.2743C10.2719 23.4447 10.3573 23.8113 10.417 24.0925C10.6987 25.5245 11.3901 26.9393 12.218 27.7661L12.7301 28.2946L12.5935 28.5332C12.4399 28.823 11.6888 30.4339 11.6888 30.4936C11.6888 30.5106 11.5864 30.6811 11.4669 30.8601C11.2876 31.1328 11.262 31.2266 11.3474 31.3715C11.3986 31.4738 11.4925 31.5505 11.5608 31.5505C11.7229 31.5505 12.0814 31.0647 12.235 30.647C12.4826 29.9822 12.8667 29.1469 13.0203 28.9338L13.1825 28.7207L13.5922 28.9168L13.9933 29.1128V29.735C13.9933 30.4339 14.164 30.9198 14.3859 30.8345C14.4627 30.809 14.5396 30.7834 14.5566 30.7834C14.5737 30.7834 14.5908 30.4595 14.5908 30.0589V29.3259L14.8298 29.4537C16.2296 30.1782 18.8414 30.5788 22.3408 30.6129C22.6566 30.6129 22.7847 30.647 22.7847 30.7322C22.7847 30.8004 22.8529 30.9368 22.9383 31.0391C23.0749 31.201 23.1261 31.2181 23.2797 31.1328C23.4077 31.0647 23.4675 30.9538 23.4675 30.7919V30.5533L24.2613 30.5106C24.9697 30.468 25.2514 30.3998 26.0366 30.0674C26.1561 30.0163 26.1732 30.0845 26.1646 30.5362C26.1561 30.9453 26.1902 31.0817 26.3012 31.1499C26.5146 31.2948 26.5743 31.1755 26.6341 30.468C26.6682 29.9822 26.7194 29.7947 26.8389 29.7009C27.0608 29.539 27.095 29.556 27.1974 29.8714C27.351 30.3146 27.8205 32.4454 27.8205 32.7097C27.8205 32.7267 27.9314 32.7438 28.0765 32.7438C28.2728 32.7438 28.3411 32.7011 28.3838 32.5307C28.4179 32.3858 28.3923 32.2579 28.307 32.1642C28.2387 32.0875 28.1619 31.8659 28.1277 31.6783C28.0509 31.2351 27.9144 30.63 27.7266 29.8969L27.5644 29.3088L27.9741 28.8741C28.9386 27.8428 29.391 27.1098 29.6214 26.1978C29.6812 25.9591 29.7516 25.7546 29.7516 25.7546C29.7516 25.7546 29.8476 25.2111 29.8476 24.8596C29.8476 24.5081 29.7516 23.9647 29.7516 23.9647C29.7516 23.9647 29.6726 23.7857 29.6129 23.5556C29.3739 22.6606 29.169 22.1236 28.8703 21.5867C28.7745 21.4226 28.6737 21.2438 28.589 21.0934C28.5153 20.9627 28.4537 20.8534 28.4179 20.794C27.6668 19.4473 26.3268 18.0324 25.1745 17.3676C24.0308 16.7113 23.6126 16.4471 23.3821 16.251C23.2626 16.1487 23.0322 16.0038 22.87 15.9271C22.5457 15.7822 21.1203 15.3561 20.9581 15.3561C20.9069 15.3561 20.7191 15.2793 20.5484 15.1856C20.1729 14.9896 19.4218 14.9214 18.4743 15.0151ZM19.6693 15.5265C19.6949 15.5691 19.7973 15.6118 19.8912 15.6118C19.9851 15.6118 20.1814 15.6799 20.335 15.7567C20.5996 15.893 20.7191 15.9271 21.6153 16.1146C22.1957 16.2425 22.7334 16.4982 23.4248 16.967C23.7577 17.1971 24.3893 17.5807 24.8331 17.8278C25.6781 18.2966 26.6682 19.166 27.1206 19.8308C27.2401 20.0183 27.4705 20.3252 27.6156 20.5127C28.0168 21.0241 28.7508 22.5413 28.9813 23.3425C29.2203 24.1692 29.2544 25.2773 29.0666 25.9932C28.9471 26.4194 28.546 27.3229 28.3155 27.6638C28.1107 27.9536 27.6242 28.4821 27.5473 28.4821C27.3852 28.4821 27.4961 28.2605 27.7351 28.0985C28.0765 27.8684 28.1277 27.6809 27.9058 27.374C27.7351 27.1269 27.7266 27.0928 27.8461 26.7092C27.9229 26.4876 27.9997 26.0955 28.0253 25.8398C28.1192 25.0131 28.2728 24.1778 28.3582 24.067C28.4435 23.9562 28.2984 23.709 28.1277 23.709C27.9826 23.709 27.7095 24.2289 27.6498 24.6465C27.6416 24.6973 27.6311 24.7621 27.619 24.836L27.6186 24.839C27.58 25.0753 27.5264 25.4042 27.4876 25.6694C27.3852 26.3171 27.0864 27.2036 26.9669 27.2036C26.8304 27.2036 26.7109 26.4194 26.6597 25.1153C26.617 23.8539 26.5572 23.5385 26.3609 23.5385C26.3183 23.5385 26.2329 23.6408 26.1732 23.7686C26.0793 23.9647 26.0707 24.2971 26.1305 25.4989C26.1646 26.3171 26.2329 27.0757 26.2841 27.1865C26.3609 27.357 26.3353 27.3996 26.1134 27.5275C25.8317 27.6894 25.7976 27.8769 25.9768 28.1667C26.0366 28.269 26.1134 28.5929 26.139 28.8827L26.1817 29.4026L25.772 29.5816C25.3794 29.7521 24.6027 29.897 23.7747 29.9651C23.3907 29.9907 23.3309 29.9651 22.8871 29.6072C22.5371 29.3259 22.3152 29.2151 22.0677 29.1895C21.8799 29.1639 21.6324 29.1043 21.5129 29.0361C21.2739 28.9168 20.207 28.9338 18.5426 29.0787C17.8086 29.1384 17.6293 29.181 17.3818 29.3685L17.1002 29.5901L16.46 29.4111C16.1186 29.3174 15.5467 29.1213 15.2053 28.9764L14.5822 28.7207L14.6249 28.4054C14.77 27.3911 14.77 27.3144 14.642 27.2036C14.3945 27.0075 14.2664 27.1695 14.1555 27.8343C14.1043 28.1923 14.036 28.4821 14.0189 28.4821C13.9592 28.4821 13.4812 28.2264 13.4812 28.1923C13.4812 28.1752 13.5751 27.9451 13.6946 27.6809C13.8141 27.4166 13.908 27.1269 13.908 27.0331C13.908 26.8285 14.0104 26.82 14.514 26.999C14.9407 27.1524 15.1626 27.1183 15.248 26.8967C15.2821 26.7944 15.2139 26.6751 15.0346 26.5132C14.881 26.3768 14.7615 26.2404 14.7615 26.2063C14.7615 26.1637 14.9322 25.9251 15.1456 25.6694C15.4955 25.2517 16.2978 23.9647 16.2978 23.8368C16.2978 23.8113 16.4515 23.5556 16.6392 23.2658C17.0063 22.7203 17.0233 22.4816 16.7075 22.3878C16.46 22.3026 16.4429 22.3197 15.8028 23.5556C15.5979 23.9476 15.376 24.3227 15.3077 24.3994C15.2395 24.4676 15.1883 24.5698 15.1797 24.6125C15.1797 24.6551 14.9919 24.9363 14.77 25.2432C14.4628 25.6608 14.3177 25.7972 14.1555 25.7972C13.9592 25.7972 13.9506 25.7716 13.908 25.0727C13.8824 24.6721 13.8994 24.1778 13.9336 23.9647C14.0275 23.4448 14.0104 23.1209 13.8567 22.3708C13.8055 22.1236 13.5922 21.9191 13.4385 21.9702C13.2849 22.0299 13.2763 22.4219 13.4044 23.1805C13.5409 23.9647 13.3532 25.7546 13.1398 25.7546C13.063 25.7546 12.9264 25.8313 12.841 25.9251C12.6959 26.0785 12.6959 26.104 12.8325 26.3086C12.9093 26.4279 13.0715 26.5643 13.1825 26.6069C13.2849 26.6495 13.4044 26.7177 13.43 26.7603C13.4897 26.8541 13.0715 27.715 12.9691 27.715C12.8069 27.715 12.0814 26.7689 11.74 26.0955C11.0999 24.8511 10.8523 23.8709 10.7755 22.26C10.6902 20.6065 11.0657 19.8649 12.6703 18.5523C13.0971 18.2029 13.6604 17.7256 13.9336 17.4869C14.6932 16.8391 15.4785 16.4215 16.7758 15.9868C17.8683 15.6203 18.1073 15.5691 19.473 15.4498C19.5498 15.4498 19.6437 15.4754 19.6693 15.5265ZM26.984 28.6525C27.0182 28.8912 26.9328 29.0787 26.7792 29.0787C26.745 29.0787 26.7109 28.9253 26.7109 28.7378C26.7109 28.3286 26.9243 28.2605 26.984 28.6525ZM20.7618 29.5645C20.7874 29.6072 20.7703 29.7094 20.7362 29.8117C20.6764 29.9481 20.6082 29.9822 20.4033 29.9481C20.1899 29.9225 20.1387 29.8714 20.1387 29.7094C20.1387 29.5304 20.1814 29.5049 20.4289 29.5049C20.5911 29.5049 20.7447 29.5304 20.7618 29.5645ZM19.5412 29.718C19.5412 29.7947 19.4644 29.8458 19.3279 29.8458C19.123 29.8458 19.0547 29.7606 19.1742 29.6498C19.2767 29.539 19.5412 29.5901 19.5412 29.718ZM18.4061 29.7265C18.3804 29.7521 18.3036 29.7606 18.2439 29.735C18.1756 29.7094 18.2012 29.6839 18.2951 29.6839C18.389 29.6753 18.4402 29.7009 18.4061 29.7265ZM21.769 29.7691C21.9909 29.8799 21.9141 29.9822 21.6153 29.9651C21.4702 29.9651 21.3678 29.9055 21.3507 29.8202C21.3166 29.6583 21.5129 29.6327 21.769 29.7691ZM26.3908 27.8002C26.4548 27.7043 26.6719 27.6424 26.8709 27.6084C27.0311 27.5811 27.1304 27.5651 27.287 27.6084C27.3158 27.6164 27.3416 27.6211 27.3643 27.6253C27.4275 27.6369 27.4663 27.644 27.4791 27.7043C27.4941 27.7755 27.4519 27.8208 27.383 27.8641C27.3671 27.8742 27.3519 27.8839 27.3374 27.8932C27.1903 27.9872 27.1047 28.0419 26.8709 28.0239C26.6739 28.0088 26.4001 27.9441 26.3908 27.8641C26.39 27.8573 26.3886 27.851 26.3873 27.845C26.3838 27.8291 26.3807 27.8153 26.3908 27.8002ZM13.8439 26.0742C13.6565 26.0491 13.3991 26.0799 13.3638 26.1381C13.3189 26.2126 13.5071 26.3086 13.5071 26.3086L13.7376 26.4184C13.7376 26.4184 14.3506 26.5876 14.4146 26.5876C14.4786 26.5876 14.6761 26.641 14.6761 26.6069C14.6761 26.5728 14.5268 26.472 14.4521 26.4258C14.4355 26.4155 14.4096 26.3943 14.3765 26.367C14.2606 26.2715 14.0554 26.1026 13.8439 26.0742Z" fill="white"/>
</g>
<defs>
<clipPath id="clip0_327_2119">
<rect width="40" height="40" fill="white"/>
</clipPath>
</defs>
</svg>
