<svg width="56" height="56" viewBox="0 0 56 56" fill="none" xmlns="http://www.w3.org/2000/svg">
<path d="M28.1456 1.80375C28.0574 1.98 27.9338 2.79077 27.8985 3.58391C27.8456 4.44755 27.722 5.11732 27.5985 5.18782C27.4926 5.25832 26.6807 5.31119 25.7982 5.29357L24.2097 5.25832L23.9096 4.65906C23.5566 3.97167 23.3095 3.86592 22.9212 4.23605C22.7094 4.44755 22.6918 4.60618 22.8153 4.85294C22.9389 5.08206 22.9212 5.18782 22.7094 5.27594C22.5506 5.32882 22.3741 5.34644 22.3035 5.31119C21.9858 5.11732 17.3262 5.96333 16.1966 6.42159C14.8375 6.9856 15.0317 7.03848 13.5667 5.71658C12.8254 5.04681 12.1547 4.50043 12.0841 4.50043C11.8547 4.50043 11.5193 4.90581 11.5193 5.18782C11.5193 5.34644 12.0488 5.94571 12.7019 6.54497L13.8844 7.62011L13.4255 8.1665C13.1431 8.50138 12.896 9.06539 12.8254 9.54128C12.7195 10.2639 12.7548 10.3873 13.2137 10.8632C13.9727 11.6563 14.5375 11.8502 16.3731 11.9912C17.9616 12.1146 18.0498 12.1498 18.0498 12.52C18.0498 12.7315 17.9439 13.0135 17.8027 13.1192C17.3968 13.4541 17.3085 14.1591 17.6086 14.7231C17.838 15.1814 17.9439 15.2343 18.2263 15.0756C18.4205 14.9699 18.5793 14.7408 18.5793 14.5645C18.5793 14.4059 18.8264 13.8066 19.1265 13.2602L19.6736 12.2556H20.6091C21.1209 12.2556 22.3917 12.4495 23.4154 12.6962C24.4391 12.943 25.7452 13.1368 26.2924 13.1368C27.5985 13.1368 30.3518 13.5775 30.6695 13.8419C30.8107 13.9476 30.9343 14.212 30.9696 14.4235C31.0402 14.8994 31.8874 15.2519 32.2051 14.9346C32.3816 14.7584 32.3816 14.635 32.2051 14.3706C31.9933 14.0357 32.0462 14.0181 33.5465 14.0181C35.0291 14.0181 35.1173 14.0357 35.3468 14.4411C35.7527 15.2166 36.5293 15.2343 36.3352 14.4587C36.2469 14.1062 36.2999 14.0534 36.8823 13.9829C37.2353 13.9476 38.5238 13.9829 39.7416 14.071C41.3125 14.1767 42.0538 14.1591 42.2832 14.0181C42.5127 13.8771 42.7774 13.8947 43.3069 14.0357C43.907 14.2296 44.0482 14.212 44.2953 13.9652C44.5954 13.6832 44.5071 13.1721 44.1365 13.0663C44.0129 13.0135 43.6952 12.943 43.4305 12.8901C43.0951 12.8196 42.9363 12.661 42.9363 12.4142C42.9363 11.3214 42.0361 10.1758 39.9887 8.60713C39.2827 8.07837 38.665 7.56724 38.612 7.47911C38.5414 7.39098 39.0709 6.96798 39.7416 6.52734C40.73 5.89283 40.9948 5.62845 40.9948 5.29357C40.9948 4.65906 40.3417 4.71193 39.3886 5.41695C38.965 5.7342 38.4885 6.06908 38.3296 6.17484C38.1708 6.26296 37.8354 6.49209 37.5707 6.68597C37.1294 7.00323 37.0588 7.00323 35.9998 6.72122C32.9993 5.92808 30.7578 5.39932 29.9989 5.29357L29.1517 5.18782L29.1693 3.65441C29.2046 1.92713 29.0987 1.50412 28.6222 1.50412C28.4457 1.50412 28.2339 1.64512 28.1456 1.80375ZM23.3448 6.42159C23.3448 6.50972 23.3801 6.7036 23.4331 6.8446C23.539 7.09135 22.7271 7.24998 19.1088 7.67299C18.2793 7.76112 17.3791 7.91975 17.0791 7.99025C16.5143 8.1665 16.1083 8.096 16.1083 7.83162C16.1083 7.46149 17.6968 6.95035 20.4326 6.43922C21.4739 6.24534 23.3448 6.24534 23.3448 6.42159ZM27.5455 6.65072C27.4926 7.02085 27.3867 7.0561 26.2041 7.0561C25.1451 7.07373 24.8804 7.02085 24.7392 6.7741C24.6509 6.59784 24.5803 6.42159 24.5803 6.36871C24.5803 6.31584 25.2687 6.26296 26.0982 6.26296C27.5632 6.26296 27.5985 6.28059 27.5455 6.65072ZM30.2283 6.43922C30.8637 6.54497 31.8168 6.73885 32.3463 6.89748C34.9408 7.65537 35.2232 7.88449 32.964 7.40861C32.2757 7.26761 31.0755 7.14423 30.2813 7.14423C28.834 7.14423 28.8163 7.14423 28.8163 6.7036C28.8163 6.19246 28.7281 6.21009 30.2283 6.43922ZM27.6867 8.3075C28.0221 8.53663 28.1809 8.55426 28.3398 8.39563C28.781 7.955 33.9171 8.3075 34.7467 8.85389C34.9938 9.01252 35.3115 9.06539 35.5409 8.99489C36.1763 8.78339 37.5707 9.2769 39.318 10.2992C40.2888 10.8632 40.3241 10.9337 39.9358 11.0218C39.6181 11.0923 39.4769 11.2686 39.4416 11.6034C39.3886 12.0441 39.318 12.0793 38.5591 12.0617C37.8001 12.0617 36.6176 11.8854 35.5233 11.6034C35.2762 11.5506 34.6408 11.4801 34.1113 11.4448C32.8228 11.3743 31.5344 11.0571 31.2696 10.7398C31.0225 10.4225 30.5989 10.4225 30.2459 10.7222C30.0165 10.9161 29.6106 10.9337 28.2868 10.8279C27.369 10.7398 25.1981 10.6517 23.486 10.634L20.362 10.5812L20.6091 10.1934C20.9621 9.66465 20.9444 9.31215 20.5561 9.10064C20.0972 8.85389 19.5677 9.25927 19.2147 10.1405L18.9323 10.8456H17.6262C15.9671 10.8456 15.3494 10.634 15.4376 10.0877C15.5082 9.59415 16.1083 9.4884 16.6908 9.87616C17.0614 10.1229 17.1497 10.1229 17.3262 9.89378C17.4497 9.75278 17.5027 9.47078 17.4321 9.25927C17.3615 9.03014 17.3968 8.90676 17.5556 8.90676C17.6792 8.90676 18.8264 8.74814 20.0796 8.55426C22.8683 8.13125 23.7508 8.11362 24.0508 8.46613C24.3332 8.80101 24.7568 8.80101 24.7568 8.48376C24.7568 8.13125 25.0392 8.06075 26.2218 8.04312C26.8925 8.0255 27.3867 8.13125 27.6867 8.3075ZM40.9948 11.2862C41.1183 11.4448 41.1713 11.6034 41.1183 11.6739C40.9771 11.7973 40.4653 11.4096 40.4653 11.1804C40.4653 10.9337 40.7477 10.9866 40.9948 11.2862ZM29.487 12.0088C30.1224 12.097 30.4048 12.2027 30.4048 12.379C30.4048 12.5376 30.2989 12.6081 30.1401 12.5376C29.9106 12.4495 27.8809 12.1675 26.3453 12.0265C26.01 11.9912 26.363 11.9559 27.1396 11.9383C27.9162 11.9207 28.9752 11.9559 29.487 12.0088ZM33.4935 12.661L34.5525 12.8725L33.5641 12.9253C33.0346 12.9606 32.3816 12.8901 32.1168 12.802C31.5344 12.5728 31.4638 12.1675 32.0462 12.3261C32.258 12.3966 32.9111 12.5376 33.4935 12.661Z" fill="#E30037"/>
<path fill-rule="evenodd" clip-rule="evenodd" d="M24.8451 17.7194C22.7271 17.9133 19.0382 19.1823 16.6378 20.5571C16.2319 20.7862 14.6257 22.0905 13.7079 22.9189C13.4961 23.1128 12.7901 23.6592 12.1371 24.1527C10.9016 25.0692 8.34235 27.7835 8.34235 28.1713C8.34235 28.2946 8.1835 28.7 7.98935 29.0878C7.6893 29.6694 7.63635 30.1277 7.63635 31.9607C7.63635 33.1769 7.70695 34.4459 7.7952 34.7984C7.88345 35.1509 8.05995 35.9088 8.1835 36.4904C8.76595 39.4515 10.1956 42.3773 11.9076 44.087L12.9666 45.1797L12.6842 45.6732C12.3665 46.2725 10.8133 49.6037 10.8133 49.7271C10.8133 49.7623 10.6015 50.1148 10.3544 50.485C9.9838 51.049 9.93085 51.2428 10.1073 51.5425C10.2132 51.754 10.4074 51.9126 10.5486 51.9126C10.8839 51.9126 11.6252 50.908 11.9429 50.0443C12.4548 48.6695 13.249 46.9423 13.5667 46.5016L13.9021 46.061L14.7493 46.4664L15.5788 46.8718V48.1584C15.5788 49.6037 15.9318 50.6083 16.3907 50.4321C16.5495 50.3792 16.7084 50.3263 16.7437 50.3263C16.779 50.3263 16.8143 49.6566 16.8143 48.8282V47.3124L17.3085 47.5768C20.2031 49.0749 25.604 49.9033 32.8405 49.9738C33.4935 49.9738 33.7583 50.0443 33.7583 50.2206C33.7583 50.3616 33.8995 50.6436 34.076 50.8551C34.3584 51.19 34.4643 51.2252 34.782 51.049C35.0467 50.908 35.1703 50.6788 35.1703 50.3439V49.8504L36.8117 49.7623C38.2767 49.6742 38.8591 49.5332 40.4829 48.8458C40.73 48.74 40.7653 48.881 40.7477 49.8152C40.73 50.6612 40.8006 50.9432 41.0301 51.0842C41.4713 51.3838 41.5949 51.1371 41.7184 49.6742C41.789 48.6695 41.8949 48.2818 42.142 48.0879C42.6009 47.753 42.6715 47.7883 42.8833 48.4404C43.201 49.3569 44.1718 53.7633 44.1718 54.3097C44.1718 54.3449 44.4012 54.3802 44.7013 54.3802C45.1072 54.3802 45.2484 54.292 45.3367 53.9395C45.4073 53.6399 45.3543 53.3755 45.1778 53.1816C45.0366 53.023 44.8778 52.5647 44.8072 52.177C44.6483 51.2605 44.3659 50.0091 43.9776 48.4933L43.6423 47.2771L44.4895 46.3782C46.4839 44.2456 47.4194 42.7298 47.8959 40.8439C48.0195 40.3504 48.1651 39.9274 48.1651 39.9274C48.1651 39.9274 48.3636 38.8036 48.3636 38.0767C48.3636 37.3498 48.1651 36.226 48.1651 36.226C48.1651 36.226 48.0018 35.8559 47.8783 35.38C47.3841 33.5294 46.9605 32.419 46.3427 31.3086C46.1445 30.9692 45.9361 30.5995 45.7609 30.2887C45.6085 30.0183 45.4811 29.7924 45.4073 29.6694C43.8541 26.8846 41.083 23.9588 38.7003 22.584C36.3352 21.2269 35.4703 20.6805 34.9938 20.2751C34.7467 20.0636 34.2701 19.764 33.9348 19.6053C33.2641 19.3057 30.3165 18.4244 29.9812 18.4244C29.8753 18.4244 29.487 18.2658 29.134 18.0719C28.3574 17.6666 26.8042 17.5256 24.8451 17.7194ZM27.3161 18.777C27.369 18.8651 27.5808 18.9532 27.775 18.9532C27.9691 18.9532 28.3751 19.0942 28.6928 19.2528C29.2399 19.5348 29.487 19.6053 31.3402 19.9931C32.5404 20.2575 33.6524 20.7862 35.082 21.7556C35.7704 22.2315 37.0765 23.0247 37.9943 23.5358C39.7416 24.5052 41.789 26.303 42.7245 27.6778C42.9716 28.0655 43.4481 28.7 43.7482 29.0878C44.5777 30.1453 46.0956 33.2826 46.5722 34.9394C47.0664 36.6491 47.137 38.9404 46.7487 40.4209C46.5016 41.3021 45.672 43.1704 45.1955 43.8754C44.7719 44.4747 43.7658 45.5675 43.607 45.5675C43.2716 45.5675 43.5011 45.1092 43.9953 44.7743C44.7013 44.2985 44.8072 43.9107 44.3483 43.2762C43.9953 42.7651 43.9776 42.6946 44.2247 41.9014C44.3836 41.4432 44.5424 40.6324 44.5954 40.1036C44.7895 38.394 45.1072 36.6667 45.2837 36.4376C45.4602 36.2084 45.1602 35.6973 44.8072 35.6973C44.5071 35.6973 43.9423 36.7724 43.8188 37.6361C43.8019 37.741 43.7801 37.8749 43.7552 38.0279L43.7542 38.034C43.6746 38.5227 43.5638 39.2029 43.4834 39.7511C43.2716 41.0906 42.6539 42.9237 42.4068 42.9237C42.1244 42.9237 41.8773 41.3021 41.7714 38.6055C41.6831 35.9969 41.5596 35.3448 41.1536 35.3448C41.0654 35.3448 40.8889 35.5563 40.7653 35.8207C40.5712 36.226 40.5535 36.9134 40.6771 39.3986C40.7477 41.0906 40.8889 42.6593 40.9948 42.8884C41.1536 43.2409 41.1007 43.3291 40.6418 43.5934C40.0593 43.9283 39.9887 44.3161 40.3594 44.9153C40.4829 45.1268 40.6418 45.7966 40.6947 46.3959L40.783 47.471L39.9358 47.8411C39.1239 48.1937 37.5177 48.4933 35.8057 48.6343C35.0114 48.6872 34.8879 48.6343 33.9701 47.894C33.2464 47.3124 32.7875 47.0833 32.2757 47.0304C31.8874 46.9775 31.3755 46.8541 31.1284 46.7131C30.6342 46.4664 28.428 46.5016 24.9863 46.8013C23.4684 46.9246 23.0977 47.0128 22.5859 47.4005L22.0034 47.8588L20.6797 47.4886C19.9737 47.2948 18.7911 46.8894 18.0851 46.5897L16.7967 46.061L16.8849 45.4089C17.185 43.3114 17.185 43.1528 16.9202 42.9237C16.4084 42.5183 16.1436 42.8532 15.9142 44.228C15.8083 44.9682 15.6671 45.5675 15.6318 45.5675C15.5082 45.5675 14.5198 45.0387 14.5198 44.9682C14.5198 44.933 14.714 44.4571 14.9611 43.9107C15.2082 43.3643 15.4023 42.7651 15.4023 42.5712C15.4023 42.1482 15.6141 42.1305 16.6555 42.5007C17.538 42.8179 17.9969 42.7474 18.1734 42.2892C18.244 42.0777 18.1028 41.8309 17.7321 41.496C17.4144 41.214 17.1673 40.932 17.1673 40.8615C17.1673 40.7734 17.5203 40.2799 17.9616 39.7511C18.6852 38.8875 20.3443 36.226 20.3443 35.9617C20.3443 35.9088 20.662 35.38 21.0503 34.7808C21.8093 33.6527 21.8446 33.1592 21.1915 32.9654C20.6797 32.7891 20.6444 32.8244 19.3206 35.38C18.897 36.1908 18.4381 36.9663 18.2969 37.1249C18.1557 37.2659 18.0498 37.4774 18.0322 37.5656C18.0322 37.6537 17.6439 38.2353 17.185 38.8699C16.5496 39.7335 16.2495 40.0155 15.9142 40.0155C15.5082 40.0155 15.4906 39.9626 15.4023 38.5173C15.3494 37.689 15.3847 36.6667 15.4553 36.226C15.6494 35.1509 15.6141 34.4811 15.2964 32.9301C15.1905 32.419 14.7493 31.996 14.4316 32.1017C14.1139 32.2251 14.0962 33.0359 14.361 34.6045C14.6434 36.226 14.2551 39.9274 13.8138 39.9274C13.655 39.9274 13.3726 40.086 13.1961 40.2799C12.896 40.5971 12.896 40.65 13.1784 41.073C13.3373 41.3198 13.6726 41.6018 13.9021 41.6899C14.1139 41.778 14.361 41.919 14.4139 42.0072C14.5375 42.201 13.6726 43.9812 13.4608 43.9812C13.1255 43.9812 11.6252 42.0248 10.9192 40.6324C9.5955 38.0591 9.08365 36.0322 8.9248 32.701C8.7483 29.2817 9.5249 27.7483 12.8431 25.034C13.7256 24.3113 14.8905 23.3243 15.4553 22.8308C17.0261 21.4913 18.6499 20.6276 21.3327 19.7287C23.5919 18.9708 24.0861 18.8651 26.9101 18.6183C27.069 18.6183 27.2631 18.6712 27.3161 18.777ZM42.4421 45.92C42.5127 46.4135 42.3362 46.8013 42.0185 46.8013C41.9479 46.8013 41.8773 46.484 41.8773 46.0962C41.8773 45.2502 42.3185 45.1092 42.4421 45.92ZM29.5752 47.8059C29.6282 47.894 29.5929 48.1055 29.5223 48.317C29.3987 48.599 29.2576 48.6695 28.834 48.599C28.3927 48.5462 28.2868 48.4404 28.2868 48.1055C28.2868 47.7354 28.3751 47.6825 28.8869 47.6825C29.2222 47.6825 29.5399 47.7354 29.5752 47.8059ZM27.0513 48.1232C27.0513 48.2818 26.8925 48.3875 26.6101 48.3875C26.1865 48.3875 26.0453 48.2113 26.2924 47.9822C26.5042 47.753 27.0513 47.8588 27.0513 48.1232ZM24.7039 48.1408C24.6509 48.1937 24.4921 48.2113 24.3685 48.1584C24.2273 48.1055 24.2803 48.0527 24.4744 48.0527C24.6686 48.035 24.7745 48.0879 24.7039 48.1408ZM31.6579 48.2289C32.1168 48.458 31.958 48.6695 31.3402 48.6343C31.0402 48.6343 30.8284 48.5109 30.7931 48.3347C30.7225 47.9998 31.1284 47.9469 31.6579 48.2289ZM41.2154 44.1575C41.3478 43.9592 41.7966 43.8312 42.2082 43.7609C42.5394 43.7043 42.7448 43.6714 43.0686 43.7609C43.1283 43.7774 43.1816 43.7871 43.2284 43.7957C43.359 43.8197 43.4394 43.8345 43.4658 43.9592C43.4969 44.1064 43.4095 44.2001 43.2672 44.2896C43.2342 44.3104 43.2029 44.3304 43.1728 44.3497C42.8686 44.5441 42.6917 44.6573 42.2082 44.6201C41.8007 44.5888 41.2345 44.455 41.2154 44.2896C41.2138 44.2756 41.2109 44.2626 41.2082 44.2502C41.2009 44.2172 41.1946 44.1887 41.2154 44.1575ZM15.27 40.5883C14.8823 40.5363 14.35 40.6 14.2771 40.7205C14.1842 40.8744 14.5735 41.073 14.5735 41.073L15.05 41.3C15.05 41.3 16.3176 41.65 16.45 41.65C16.5823 41.65 16.9908 41.7604 16.9908 41.6899C16.9908 41.6194 16.682 41.4108 16.5275 41.3154C16.4932 41.2941 16.4397 41.2501 16.3712 41.1937C16.1315 40.9963 15.7073 40.647 15.27 40.5883Z" fill="#E30037"/>
</svg>
