<svg width="56" height="56" viewBox="0 0 56 56" fill="none" xmlns="http://www.w3.org/2000/svg">
<path d="M28.1456 1.80378C28.0574 1.98003 27.9338 2.7908 27.8985 3.58394C27.8456 4.44758 27.722 5.11735 27.5985 5.18785C27.4926 5.25835 26.6807 5.31122 25.7982 5.2936L24.2097 5.25835L23.9096 4.65909C23.5566 3.9717 23.3095 3.86595 22.9212 4.23608C22.7094 4.44758 22.6918 4.60621 22.8153 4.85297C22.9389 5.0821 22.9212 5.18785 22.7094 5.27597C22.5506 5.32885 22.3741 5.34648 22.3035 5.31122C21.9858 5.11735 17.3262 5.96336 16.1966 6.42162C14.8375 6.98563 15.0317 7.03851 13.5667 5.71661C12.8254 5.04684 12.1547 4.50046 12.0841 4.50046C11.8547 4.50046 11.5193 4.90584 11.5193 5.18785C11.5193 5.34648 12.0488 5.94574 12.7019 6.545L13.8844 7.62014L13.4255 8.16653C13.1431 8.50141 12.896 9.06542 12.8254 9.54131C12.7195 10.2639 12.7548 10.3873 13.2137 10.8632C13.9727 11.6563 14.5375 11.8502 16.3731 11.9912C17.9616 12.1146 18.0498 12.1499 18.0498 12.52C18.0498 12.7315 17.9439 13.0135 17.8027 13.1193C17.3968 13.4541 17.3085 14.1591 17.6086 14.7232C17.838 15.1814 17.9439 15.2343 18.2263 15.0757C18.4205 14.9699 18.5793 14.7408 18.5793 14.5645C18.5793 14.4059 18.8264 13.8066 19.1265 13.2603L19.6736 12.2556H20.6091C21.1209 12.2556 22.3917 12.4495 23.4154 12.6962C24.4391 12.943 25.7452 13.1369 26.2924 13.1369C27.5985 13.1369 30.3518 13.5775 30.6695 13.8419C30.8107 13.9476 30.9343 14.212 30.9696 14.4235C31.0402 14.8994 31.8874 15.2519 32.2051 14.9347C32.3816 14.7584 32.3816 14.635 32.2051 14.3707C31.9933 14.0358 32.0462 14.0181 33.5465 14.0181C35.0291 14.0181 35.1173 14.0358 35.3468 14.4412C35.7527 15.2167 36.5293 15.2343 36.3352 14.4588C36.2469 14.1063 36.2999 14.0534 36.8823 13.9829C37.2353 13.9476 38.5238 13.9829 39.7416 14.071C41.3125 14.1768 42.0538 14.1591 42.2832 14.0181C42.5127 13.8771 42.7774 13.8948 43.3069 14.0358C43.907 14.2296 44.0482 14.212 44.2953 13.9653C44.5954 13.6833 44.5071 13.1721 44.1365 13.0664C44.0129 13.0135 43.6952 12.943 43.4305 12.8901C43.0951 12.8196 42.9363 12.661 42.9363 12.4142C42.9363 11.3215 42.0361 10.1758 39.9887 8.60716C39.2827 8.0784 38.665 7.56727 38.612 7.47914C38.5414 7.39101 39.0709 6.96801 39.7416 6.52737C40.73 5.89286 40.9948 5.62848 40.9948 5.2936C40.9948 4.65909 40.3417 4.71196 39.3886 5.41698C38.965 5.73423 38.4885 6.06911 38.3296 6.17487C38.1708 6.26299 37.8354 6.49212 37.5707 6.686C37.1294 7.00326 37.0588 7.00326 35.9998 6.72125C32.9993 5.92811 30.7578 5.39935 29.9988 5.2936L29.1517 5.18785L29.1693 3.65444C29.2046 1.92716 29.0987 1.50415 28.6222 1.50415C28.4457 1.50415 28.2339 1.64515 28.1456 1.80378ZM23.3448 6.42162C23.3448 6.50975 23.3801 6.70363 23.4331 6.84463C23.539 7.09138 22.7271 7.25001 19.1088 7.67302C18.2793 7.76115 17.3791 7.91978 17.0791 7.99028C16.5143 8.16653 16.1083 8.09603 16.1083 7.83165C16.1083 7.46152 17.6968 6.95038 20.4326 6.43925C21.4739 6.24537 23.3448 6.24537 23.3448 6.42162ZM27.5455 6.65075C27.4926 7.02088 27.3867 7.05613 26.2041 7.05613C25.1451 7.07376 24.8804 7.02088 24.7392 6.77413C24.6509 6.59787 24.5803 6.42162 24.5803 6.36875C24.5803 6.31587 25.2687 6.26299 26.0982 6.26299C27.5632 6.26299 27.5985 6.28062 27.5455 6.65075ZM30.2283 6.43925C30.8637 6.545 31.8168 6.73888 32.3463 6.89751C34.9408 7.6554 35.2232 7.88452 32.964 7.40864C32.2757 7.26764 31.0755 7.14426 30.2812 7.14426C28.834 7.14426 28.8163 7.14426 28.8163 6.70363C28.8163 6.19249 28.7281 6.21012 30.2283 6.43925ZM27.6867 8.30753C28.0221 8.53666 28.1809 8.55429 28.3398 8.39566C28.781 7.95503 33.9171 8.30753 34.7467 8.85392C34.9938 9.01255 35.3115 9.06542 35.5409 8.99492C36.1763 8.78342 37.5707 9.27693 39.318 10.2992C40.2888 10.8632 40.3241 10.9337 39.9358 11.0218C39.6181 11.0923 39.4769 11.2686 39.4416 11.6035C39.3886 12.0441 39.318 12.0794 38.5591 12.0617C37.8001 12.0617 36.6176 11.8855 35.5233 11.6035C35.2762 11.5506 34.6408 11.4801 34.1113 11.4448C32.8228 11.3743 31.5344 11.0571 31.2696 10.7398C31.0225 10.4226 30.5989 10.4226 30.2459 10.7222C30.0165 10.9161 29.6106 10.9337 28.2868 10.828C27.369 10.7398 25.1981 10.6517 23.486 10.6341L20.362 10.5812L20.6091 10.1934C20.9621 9.66468 20.9444 9.31218 20.5561 9.10067C20.0972 8.85392 19.5677 9.2593 19.2147 10.1406L18.9323 10.8456H17.6262C15.9671 10.8456 15.3494 10.6341 15.4376 10.0877C15.5082 9.59418 16.1083 9.48843 16.6908 9.87619C17.0614 10.1229 17.1497 10.1229 17.3262 9.89381C17.4497 9.75281 17.5027 9.47081 17.4321 9.2593C17.3615 9.03017 17.3968 8.90679 17.5556 8.90679C17.6792 8.90679 18.8264 8.74817 20.0796 8.55429C22.8683 8.13128 23.7508 8.11365 24.0508 8.46616C24.3332 8.80104 24.7568 8.80104 24.7568 8.48379C24.7568 8.13128 25.0392 8.06078 26.2218 8.04315C26.8925 8.02553 27.3867 8.13128 27.6867 8.30753ZM40.9948 11.2862C41.1183 11.4448 41.1713 11.6035 41.1183 11.674C40.9771 11.7974 40.4653 11.4096 40.4653 11.1805C40.4653 10.9337 40.7477 10.9866 40.9948 11.2862ZM29.487 12.0089C30.1224 12.097 30.4048 12.2027 30.4048 12.379C30.4048 12.5376 30.2989 12.6081 30.1401 12.5376C29.9106 12.4495 27.8809 12.1675 26.3453 12.0265C26.01 11.9912 26.363 11.956 27.1396 11.9384C27.9162 11.9207 28.9752 11.956 29.487 12.0089ZM33.4935 12.661L34.5525 12.8725L33.5641 12.9254C33.0346 12.9606 32.3816 12.8901 32.1168 12.802C31.5344 12.5729 31.4638 12.1675 32.0462 12.3261C32.258 12.3966 32.9111 12.5376 33.4935 12.661Z" fill="white"/>
<path fill-rule="evenodd" clip-rule="evenodd" d="M24.8451 17.7195C22.7271 17.9133 19.0382 19.1824 16.6378 20.5571C16.2319 20.7863 14.6257 22.0906 13.7079 22.9189C13.4961 23.1128 12.7901 23.6592 12.1371 24.1527C10.9016 25.0692 8.34235 27.7835 8.34235 28.1713C8.34235 28.2947 8.1835 28.7001 7.98935 29.0878C7.6893 29.6695 7.63635 30.1277 7.63635 31.9607C7.63635 33.1769 7.70695 34.4459 7.7952 34.7984C7.88345 35.1509 8.05995 35.9088 8.1835 36.4905C8.76595 39.4515 10.1956 42.3773 11.9076 44.087L12.9666 45.1798L12.6842 45.6733C12.3665 46.2725 10.8133 49.6037 10.8133 49.7271C10.8133 49.7623 10.6015 50.1148 10.3544 50.485C9.9838 51.049 9.93085 51.2429 10.1073 51.5425C10.2132 51.754 10.4074 51.9126 10.5486 51.9126C10.8839 51.9126 11.6252 50.908 11.9429 50.0443C12.4548 48.6696 13.249 46.9423 13.5667 46.5017L13.9021 46.061L14.7493 46.4664L15.5788 46.8718V48.1584C15.5788 49.6037 15.9318 50.6084 16.3907 50.4321C16.5495 50.3792 16.7084 50.3264 16.7437 50.3264C16.779 50.3264 16.8143 49.6566 16.8143 48.8282V47.3124L17.3085 47.5768C20.2031 49.075 25.604 49.9033 32.8405 49.9738C33.4935 49.9738 33.7583 50.0443 33.7583 50.2206C33.7583 50.3616 33.8995 50.6436 34.076 50.8551C34.3584 51.19 34.4643 51.2253 34.782 51.049C35.0467 50.908 35.1703 50.6789 35.1703 50.344V49.8505L36.8117 49.7623C38.2767 49.6742 38.8591 49.5332 40.4829 48.8458C40.73 48.7401 40.7653 48.8811 40.7477 49.8152C40.73 50.6612 40.8006 50.9432 41.0301 51.0842C41.4713 51.3839 41.5949 51.1371 41.7184 49.6742C41.789 48.6696 41.8949 48.2818 42.142 48.0879C42.6009 47.7531 42.6715 47.7883 42.8833 48.4404C43.201 49.357 44.1718 53.7633 44.1718 54.3097C44.1718 54.3449 44.4012 54.3802 44.7013 54.3802C45.1072 54.3802 45.2484 54.2921 45.3367 53.9395C45.4073 53.6399 45.3543 53.3755 45.1778 53.1817C45.0366 53.023 44.8778 52.5648 44.8072 52.177C44.6483 51.2605 44.3659 50.0091 43.9776 48.4933L43.6423 47.2772L44.4895 46.3783C46.4839 44.2456 47.4194 42.7298 47.8959 40.8439C48.0195 40.3504 48.1651 39.9274 48.1651 39.9274C48.1651 39.9274 48.3636 38.8036 48.3636 38.0767C48.3636 37.3499 48.1651 36.2261 48.1651 36.2261C48.1651 36.2261 48.0018 35.8559 47.8783 35.3801C47.3841 33.5294 46.9605 32.419 46.3427 31.3086C46.1445 30.9693 45.9361 30.5996 45.7609 30.2887C45.6085 30.0184 45.4811 29.7924 45.4073 29.6694C43.8541 26.8846 41.083 23.9588 38.7003 22.5841C36.3352 21.2269 35.4703 20.6805 34.9938 20.2751C34.7467 20.0636 34.2701 19.764 33.9348 19.6054C33.2641 19.3057 30.3165 18.4245 29.9812 18.4245C29.8753 18.4245 29.487 18.2659 29.134 18.072C28.3574 17.6666 26.8042 17.5256 24.8451 17.7195ZM27.3161 18.777C27.369 18.8651 27.5808 18.9532 27.775 18.9532C27.9691 18.9532 28.3751 19.0942 28.6928 19.2529C29.2399 19.5349 29.487 19.6054 31.3402 19.9931C32.5404 20.2575 33.6524 20.7863 35.082 21.7557C35.7704 22.2316 37.0765 23.0247 37.9943 23.5358C39.7416 24.5052 41.789 26.303 42.7245 27.6778C42.9716 28.0655 43.4481 28.7001 43.7482 29.0878C44.5777 30.1453 46.0956 33.2826 46.5722 34.9394C47.0664 36.6491 47.137 38.9404 46.7487 40.4209C46.5016 41.3022 45.672 43.1705 45.1955 43.8755C44.7719 44.4747 43.7658 45.5675 43.607 45.5675C43.2716 45.5675 43.5011 45.1092 43.9953 44.7744C44.7013 44.2985 44.8072 43.9107 44.3483 43.2762C43.9953 42.7651 43.9776 42.6946 44.2247 41.9014C44.3836 41.4432 44.5424 40.6324 44.5954 40.1037C44.7895 38.394 45.1072 36.6667 45.2837 36.4376C45.4602 36.2085 45.1602 35.6973 44.8072 35.6973C44.5071 35.6973 43.9423 36.7725 43.8188 37.6361C43.8019 37.741 43.7801 37.875 43.7552 38.0279L43.7542 38.034C43.6746 38.5228 43.5638 39.2029 43.4834 39.7511C43.2716 41.0907 42.6539 42.9237 42.4068 42.9237C42.1244 42.9237 41.8773 41.3022 41.7714 38.6055C41.6831 35.9969 41.5596 35.3448 41.1536 35.3448C41.0654 35.3448 40.8889 35.5563 40.7653 35.8207C40.5712 36.2261 40.5535 36.9135 40.6771 39.3986C40.7477 41.0907 40.8889 42.6593 40.9948 42.8885C41.1536 43.241 41.1007 43.3291 40.6418 43.5935C40.0593 43.9284 39.9887 44.3161 40.3594 44.9154C40.4829 45.1269 40.6418 45.7966 40.6947 46.3959L40.783 47.4711L39.9358 47.8412C39.1239 48.1937 37.5177 48.4933 35.8057 48.6343C35.0114 48.6872 34.8879 48.6343 33.9701 47.8941C33.2464 47.3124 32.7875 47.0833 32.2757 47.0304C31.8874 46.9775 31.3755 46.8542 31.1284 46.7132C30.6342 46.4664 28.428 46.5017 24.9863 46.8013C23.4684 46.9247 23.0977 47.0128 22.5859 47.4005L22.0034 47.8588L20.6797 47.4887C19.9737 47.2948 18.7911 46.8894 18.0851 46.5898L16.7967 46.061L16.8849 45.4089C17.185 43.3115 17.185 43.1528 16.9202 42.9237C16.4084 42.5183 16.1436 42.8532 15.9142 44.228C15.8083 44.9683 15.6671 45.5675 15.6318 45.5675C15.5082 45.5675 14.5198 45.0387 14.5198 44.9683C14.5198 44.933 14.714 44.4571 14.9611 43.9107C15.2082 43.3643 15.4023 42.7651 15.4023 42.5712C15.4023 42.1482 15.6141 42.1306 16.6555 42.5007C17.538 42.818 17.9969 42.7475 18.1734 42.2892C18.244 42.0777 18.1028 41.8309 17.7321 41.4961C17.4144 41.2141 17.1673 40.932 17.1673 40.8615C17.1673 40.7734 17.5203 40.2799 17.9616 39.7511C18.6852 38.8875 20.3443 36.2261 20.3443 35.9617C20.3443 35.9088 20.662 35.3801 21.0503 34.7808C21.8093 33.6528 21.8446 33.1593 21.1915 32.9654C20.6797 32.7891 20.6444 32.8244 19.3206 35.3801C18.897 36.1908 18.4381 36.9663 18.2969 37.125C18.1557 37.266 18.0498 37.4775 18.0322 37.5656C18.0322 37.6537 17.6439 38.2354 17.185 38.8699C16.5496 39.7335 16.2495 40.0155 15.9142 40.0155C15.5082 40.0155 15.4906 39.9627 15.4023 38.5174C15.3494 37.689 15.3847 36.6667 15.4553 36.2261C15.6494 35.1509 15.6141 34.4812 15.2964 32.9301C15.1905 32.419 14.7493 31.996 14.4316 32.1017C14.1139 32.2251 14.0962 33.0359 14.361 34.6045C14.6434 36.2261 14.2551 39.9274 13.8138 39.9274C13.655 39.9274 13.3726 40.086 13.1961 40.2799C12.896 40.5972 12.896 40.65 13.1784 41.073C13.3373 41.3198 13.6726 41.6018 13.9021 41.6899C14.1139 41.7781 14.361 41.9191 14.4139 42.0072C14.5375 42.2011 13.6726 43.9812 13.4608 43.9812C13.1255 43.9812 11.6252 42.0248 10.9192 40.6324C9.5955 38.0591 9.08365 36.0322 8.9248 32.701C8.7483 29.2817 9.5249 27.7483 12.8431 25.034C13.7256 24.3113 14.8905 23.3243 15.4553 22.8308C17.0261 21.4913 18.6499 20.6276 21.3327 19.7288C23.5919 18.9709 24.0861 18.8651 26.9101 18.6184C27.069 18.6184 27.2631 18.6712 27.3161 18.777ZM42.4421 45.92C42.5127 46.4135 42.3362 46.8013 42.0185 46.8013C41.9479 46.8013 41.8773 46.484 41.8773 46.0963C41.8773 45.2503 42.3185 45.1093 42.4421 45.92ZM29.5752 47.8059C29.6282 47.8941 29.5929 48.1056 29.5223 48.3171C29.3987 48.5991 29.2576 48.6696 28.834 48.5991C28.3927 48.5462 28.2868 48.4404 28.2868 48.1056C28.2868 47.7354 28.3751 47.6826 28.8869 47.6826C29.2222 47.6826 29.5399 47.7354 29.5752 47.8059ZM27.0513 48.1232C27.0513 48.2818 26.8925 48.3876 26.6101 48.3876C26.1865 48.3876 26.0453 48.2113 26.2924 47.9822C26.5042 47.7531 27.0513 47.8588 27.0513 48.1232ZM24.7039 48.1408C24.6509 48.1937 24.4921 48.2113 24.3685 48.1584C24.2273 48.1056 24.2803 48.0527 24.4744 48.0527C24.6686 48.0351 24.7745 48.0879 24.7039 48.1408ZM31.6579 48.2289C32.1168 48.4581 31.958 48.6696 31.3402 48.6343C31.0402 48.6343 30.8284 48.5109 30.7931 48.3347C30.7225 47.9998 31.1284 47.9469 31.6579 48.2289ZM41.2154 44.1575C41.3478 43.9592 41.7966 43.8312 42.2082 43.7609C42.5394 43.7043 42.7448 43.6714 43.0686 43.7609C43.1283 43.7774 43.1816 43.7872 43.2284 43.7958C43.359 43.8198 43.4394 43.8345 43.4658 43.9592C43.4969 44.1065 43.4095 44.2001 43.2672 44.2897C43.2342 44.3104 43.2029 44.3305 43.1728 44.3497C42.8686 44.5442 42.6917 44.6573 42.2082 44.6201C41.8007 44.5888 41.2345 44.4551 41.2154 44.2897C41.2138 44.2757 41.2109 44.2626 41.2082 44.2502C41.2009 44.2173 41.1946 44.1887 41.2154 44.1575ZM15.27 40.5883C14.8823 40.5364 14.35 40.6 14.2771 40.7205C14.1842 40.8745 14.5735 41.073 14.5735 41.073L15.05 41.3C15.05 41.3 16.3176 41.65 16.45 41.65C16.5823 41.65 16.9908 41.7604 16.9908 41.6899C16.9908 41.6194 16.682 41.4109 16.5275 41.3154C16.4932 41.2942 16.4397 41.2502 16.3712 41.1937C16.1315 40.9963 15.7073 40.647 15.27 40.5883Z" fill="white"/>
</svg>
