<svg width="24" height="24" viewBox="0 0 24 24" fill="none" xmlns="http://www.w3.org/2000/svg">
<g clip-path="url(#clip0_306_229)">
<path d="M20.9998 6.7049C20.3258 6.98937 19.6109 7.1761 18.8788 7.25887C19.6413 6.82346 20.2268 6.13398 20.5025 5.31247C19.7776 5.72228 18.9845 6.01101 18.1575 6.1662C17.4839 5.48248 16.5242 5.05518 15.462 5.05518C13.4225 5.05518 11.7689 6.63041 11.7689 8.57326C11.7689 8.84904 11.8016 9.11752 11.8646 9.37508C8.79542 9.22831 6.07432 7.82771 4.25288 5.69918C3.93507 6.21878 3.75296 6.82319 3.75296 7.46786C3.75296 8.68848 4.40496 9.76527 5.39581 10.3962C4.80937 10.3787 4.23583 10.2278 3.72307 9.95611C3.72286 9.97085 3.72286 9.98559 3.72286 10.0004C3.72286 11.705 4.9958 13.1269 6.68513 13.4501C6.14132 13.591 5.57091 13.6117 5.01746 13.5104C5.48736 14.9082 6.85121 15.9253 8.46713 15.9537C7.20326 16.8973 5.61089 17.4598 3.88079 17.4598C3.58266 17.4598 3.28875 17.4431 2.99984 17.4106C4.63411 18.4088 6.57523 18.9913 8.6607 18.9913C15.4534 18.9913 19.1678 13.6303 19.1678 8.98127C19.1678 8.82868 19.1643 8.67695 19.1571 8.5261C19.8801 8.02819 20.5041 7.41147 20.9998 6.7049Z" fill="white"/>
</g>
<defs>
<clipPath id="clip0_306_229">
<rect width="18" height="14" fill="white" transform="translate(2.99984 5)"/>
</clipPath>
</defs>
</svg>
